HIERARCHY
ROOT Hips
{
  OFFSET -331.093 83.8371 -317.828
  CHANNELS 6 Xposition Yposition Zposition Zrotation Xrotation Yrotation
  JOINT LeftUpLeg
  {
    OFFSET 8.64259 1.95398 -2.38835
    CHANNELS 3 Zrotation Xrotation Yrotation
    JOINT LeftLeg
    {
      OFFSET 43.7702 0 0
      CHANNELS 3 Zrotation Xrotation Yrotation
      JOINT LeftFoot
      {
        OFFSET 40.6238 0 0
        CHANNELS 3 Zrotation Xrotation Yrotation
        JOINT LeftToeBase
        {
          OFFSET 12.7242 0 0
          CHANNELS 3 Zrotation Xrotation Yrotation
          End Site
          {
            OFFSET 0 0 0
          }
        }
      }
    }
  }
  JOINT RightUpLeg
  {
    OFFSET -8.2249 1.95398 -2.59336
    CHANNELS 3 Zrotation Xrotation Yrotation
    JOINT RightLeg
    {
      OFFSET 43.5653 0 0
      CHANNELS 3 Zrotation Xrotation Yrotation
      JOINT RightFoot
      {
        OFFSET 40.6238 0 0
        CHANNELS 3 Zrotation Xrotation Yrotation
        JOINT RightToeBase
        {
          OFFSET 12.7242 0 0
          CHANNELS 3 Zrotation Xrotation Yrotation
          End Site
          {
            OFFSET 0 0 0
          }
        }
      }
    }
  }
  JOINT Spine
  {
    OFFSET 0.165834 0.87714 6.61349
    CHANNELS 3 Zrotation Xrotation Yrotation
    JOINT Spine1
    {
      OFFSET 7.38963 1.71661e-005 0
      CHANNELS 3 Zrotation Xrotation Yrotation
      JOINT Spine2
      {
        OFFSET 11.9445 1.14441e-005 0
        CHANNELS 3 Zrotation Xrotation Yrotation
        JOINT Spine3
        {
          OFFSET 14.7254 4.19617e-005 0
          CHANNELS 3 Zrotation Xrotation Yrotation
          JOINT Spine4
          {
            OFFSET 10.9679 0 0
            CHANNELS 3 Zrotation Xrotation Yrotation
            JOINT RightShoulder
            {
              OFFSET 2.46616 -1.6653 3.69651
              CHANNELS 3 Zrotation Xrotation Yrotation
              JOINT RightArm
              {
                OFFSET 13.0012 0 0
                CHANNELS 3 Zrotation Xrotation Yrotation
                JOINT RightForeArm
                {
                  OFFSET 28.7848 1.62311e-005 0
                  CHANNELS 3 Zrotation Xrotation Yrotation
                  JOINT RightHand
                  {
                    OFFSET 26.5688 1.62095e-005 0
                    CHANNELS 3 Zrotation Xrotation Yrotation
                    End Site
                    {
                      OFFSET 0 0 0
                    }
                  }
                }
              }
            }
            JOINT LeftShoulder
            {
              OFFSET 2.38034 -1.29275 -3.7523
              CHANNELS 3 Zrotation Xrotation Yrotation
              JOINT LeftArm
              {
                OFFSET 16.3182 6.07031e-005 0
                CHANNELS 3 Zrotation Xrotation Yrotation
                JOINT LeftForeArm
                {
                  OFFSET 27.0901 0 0
                  CHANNELS 3 Zrotation Xrotation Yrotation
                  JOINT LeftHand
                  {
                    OFFSET 24.5451 1.51738e-005 0
                    CHANNELS 3 Zrotation Xrotation Yrotation
                    End Site
                    {
                      OFFSET 0 0 0
                    }
                  }
                }
              }
            }
            JOINT Neck
            {
              OFFSET 5.0226 -0.0266342 0
              CHANNELS 3 Zrotation Xrotation Yrotation
              JOINT Head
              {
                OFFSET 6.69364 2.86102e-005 0
                CHANNELS 3 Zrotation Xrotation Yrotation
                End Site
                {
                  OFFSET 0 0 0
                }
              }
            }
          }
        }
      }
    }
  }
}
MOTION
Frames:	13
Frame Time:	0.0416667
387.063 78.5977 254.687 -61.0226 9.15684 83.0378 20.933 28.6147 -93.8168 -47.5505 59.0067 7.18694 -23.8927 -17.0527 -59.3991 178.275 24.2874 -66.8128 2.32682 28.1678 -89.9281 -48.031 0.221702 18.3664 136.311 -36.2756 1.38479 13.3689 -23.5851 172.731 -1.32991 0.359024 -103.889 24.2434 -10.4742 -25.983 12.3645 -11.5708 -25.5405 -8.16209 -2.51692 -27.7733 11.8506 -2.51692 -27.7733 115.263 46.8297 -139.007 51.9937 -35.4234 -92.2557 -12.6095 -0.346693 -23.9523 0.100251 -0.00737242 -0.131305 -54.4022 -31.0756 140.806 -44.0957 -0.23824 -20.3152 119.769 74.8019 -128.337 -15.9535 5.8077 -51.1576 -130.669 -76.724 179.44 28.7641 44.768 165.346 
387.231 79.022 255.044 -59.1963 10.0737 82.4238 21.0219 29.5531 -94.7422 -45.5355 58.2381 5.99824 -25.3094 -16.2436 -60.7917 178.327 23.6531 -66.9067 2.21335 28.1789 -90.7062 -48.6056 -2.50979 18.1055 135.99 -36.0558 1.34823 16.6304 50.4838 -179.176 -1.14045 0.995509 -97.6442 29.8735 -7.04811 -14.7777 18.2379 -7.70274 -14.4639 -4.6318 -2.14118 -16.1383 15.3808 -2.14118 -16.1384 100.991 20.2987 -109.781 62.0536 -40.1459 -70.2514 -12.2805 -0.953223 -28.3345 -2.91085 -0.192874 3.01728 -70.6574 -18.6913 111.07 -37.0791 -11.7521 -47.6096 127.921 75.2751 -136.933 -18.1179 7.80317 -56.9656 -117.071 -76.0598 -165.724 33.0311 67.6333 155.09 
387.91 80.1161 255.867 -54.1118 11.0753 79.9076 21.9195 32.2553 -96.6644 -41.6401 56.5416 3.6772 -29.7386 -16.715 -63.1925 178.119 22.1979 -67.0249 2.63377 29.1234 -91.5935 -49.5762 -8.28082 16.9144 134.182 -35.3748 0.922874 -157.443 20.1894 0.0384332 -0.352778 0.769248 -86.2848 38.4887 2.84459 8.53847 26.8249 3.22818 8.40679 4.21363 0.0394151 8.97689 24.2263 0.0394135 8.97688 121.125 -60.9433 -63.5866 53.5305 5.4979 -12.9297 -13.2479 -0.845794 -38.8842 -3.62546 -0.236419 2.35733 -89.1348 22.9198 91.1677 -26.9231 -1.37308 -88.0631 170.442 80.5442 175.388 -22.8246 12.085 -63.5183 32.2636 -20.908 -14.5639 124.981 -7.53616 -3.09361 
388.631 81.2029 256.642 -40.7723 11.1651 75.3676 22.5713 40.2103 -101.367 -39.1636 55.8826 1.83137 -37.8024 -22.039 -63.7994 177.458 21.2108 -66.9612 3.38576 35.5262 -93.6057 -52.9319 -14.7503 14.658 131.577 -34.4294 0.302431 -162.677 2.49425 1.9412 0.353826 -6.03116 -90.6961 37.8196 -0.224066 -2.51617 26.1436 -0.335109 -2.50392 3.64855 0.548012 -2.46639 23.6612 0.548014 -2.46641 96.6895 -36.1976 -91.9131 41.8603 -2.93731 -16.202 -10.2415 -5.51326 -35.4085 -2.65773 -0.178614 0.542948 -101.954 -26.712 48.4399 -27.2788 7.62136 -37.3765 -6.53457 68.5279 -0.0174777 -33.0697 14.2425 -55.3828 15.5651 11.0526 -5.04228 120.842 6.91929 -1.02063 
389.476 82.2166 257.137 -18.96 6.38711 70.0409 25.0075 54.2357 -109.409 -40.7504 51.6476 1.24848 -45.2192 -35.2202 -54.0001 173.481 19.2724 -66.1308 6.17861 50.2464 -97.665 -57.271 -20.101 11.8406 128.231 -33.376 -0.610848 -166.678 -0.83367 1.94759 0.331791 -3.62783 -90.0307 34.1311 0.589318 -0.314088 22.4602 0.574929 -0.339727 -0.0759567 0.656472 -0.122438 19.9367 0.656475 -0.122446 98.2282 -41.6337 -88.5298 38.1773 -3.20442 -7.4183 -9.47643 -5.72065 -38.2699 -1.26857 -0.110956 -1.25208 -104.09 -28.1125 47.1695 -27.5878 4.00019 -33.2789 -3.63024 21.1133 -0.00570604 -16.4311 2.00324 -20.2323 3.62575 7.08233 -9.33289 118.914 16.2638 1.42864 
390.209 83.2165 257.208 9.38522 -2.93996 69.0042 42.0927 73.2832 -133.35 -44.5646 40.2154 2.39641 -35.056 -46.619 -26.8593 166.327 11.8056 -65.8979 20.4426 72.3581 -114.823 -62.1513 -23.7265 9.21069 125.514 -32.7031 -1.40315 -169.491 -3.54553 1.80763 -0.441556 -0.67053 -90.0751 28.2046 -1.0404 -0.351354 16.5341 -1.05485 -0.305216 -6.00354 -0.886707 -0.647808 14.0091 -0.886703 -0.647814 94.4385 -44.0369 -94.5925 35.5432 -5.35984 -3.18197 -9.75553 -7.65412 -39.0655 -0.374238 -0.097226 -0.734352 -104.037 -31.9582 49.709 -27.9352 1.58862 -23.4367 -1.73293 5.4842 -4.4473 0.730191 -0.239259 -4.15139 -3.43383 10.0325 -10.1509 114.976 18.5564 1.81289 
390.611 84.6243 256.925 39.9566 -12.6091 75.0788 143.537 75.3066 119.5 -47.8436 39.4812 4.10266 -10.7004 -45.3755 2.20521 159.5 12.6765 -64.0832 139.904 75.1487 122.543 -65.0434 -25.3893 6.81307 123.59 -32.4536 -1.9789 -171.223 -8.94704 1.4427 -1.38693 2.79049 -90.7871 21.2115 -3.00378 -0.39697 9.54372 -3.01833 -0.26428 -13.0136 -2.74555 -1.28195 6.99904 -2.74556 -1.28196 91.402 -44.7854 -99.4187 33.8448 -7.19907 -2.66008 -8.79258 -8.14818 -38.1108 -0.980514 -0.114574 -0.0838177 -102.516 -35.0181 53.9687 -25.4794 3.46918 -16.8823 -1.55146 2.59945 -12.9565 1.75197 0.00413624 -1.44084 -5.43687 12.5292 -10.1065 108.085 19.6505 2.08805 
390.417 86.4216 256.144 61.5424 -18.5529 83.9672 165.251 59.053 97.5239 -51.826 41.0611 5.68247 28.6076 -21.6416 30.2626 137.761 7.50905 -61.5566 157.887 53.276 104.382 -62.9689 -25.9839 5.66647 121.51 -31.8939 -2.63172 -172.471 -19.9859 0.590527 -2.05411 5.52287 -90.641 15.831 -4.38621 -0.626487 4.16747 -4.40955 -0.432478 -18.4182 -3.99487 -1.91774 1.59447 -3.99485 -1.91774 89.1399 -45.9161 -102.775 31.9331 -8.0174 -4.95523 -8.30883 -7.8721 -38.2239 -4.06071 -0.290398 1.80902 -99.6418 -35.6403 59.0431 -24.2787 6.10191 -12.9028 -0.615974 5.57412 -18.5667 -2.00401 -0.0803337 -4.23741 -3.97169 14.8543 -9.90128 104.625 18.6338 0.0998702 
389.634 86.8084 255.181 71.56 -23.306 89.8163 169.672 49.2526 97.8031 -49.0805 45.6258 6.00731 49.6289 1.17239 31.5722 128.994 -1.95524 -65.2671 162.502 39.3852 102.294 -61.0323 -26.2153 4.85096 122.366 -32.2664 -2.27677 -175.746 -42.8612 -2.40748 -2.07339 6.83641 -90.602 13.1971 -4.40492 -0.655673 1.53357 -4.42952 -0.460806 -21.052 -4.00394 -1.95121 -1.03933 -4.00393 -1.9512 88.0615 -47.3667 -104.073 29.3561 -9.75768 -7.44403 -7.76658 -7.84515 -40.8977 -8.10588 -0.536833 2.19334 -96.2505 -35.5939 64.7252 -23.0912 11.5763 -8.87678 0.378114 6.1394 -25.9226 -1.89178 -0.0885091 -3.88909 -4.33796 16.409 -12.7943 89.3936 23.7554 4.52142 
388.27 86.1815 254.141 75.8966 -27.9514 92.1703 172.749 45.1927 99.9754 -41.429 55.0066 4.24883 53.3996 5.09622 30.3392 143.438 -6.24773 -69.814 167.014 27.3986 100.51 -58.5091 -23.7683 3.91782 126.123 -33.4073 -0.788391 75.6139 -77.9701 -107.44 -1.62621 6.86345 -90.343 13.1515 -3.39333 -0.272878 1.48496 -3.40203 -0.123106 -21.0819 -3.15429 -1.28109 -1.06921 -3.15431 -1.2811 87.3864 -49.4032 -104.54 27.2528 -11.2586 -5.99396 -8.83895 -8.09364 -45.8566 -9.04447 -0.553083 1.52849 -93.8767 -34.1387 68.2316 -29.4584 12.5478 -0.597988 1.91848 7.02104 -30.6123 6.83699 0.312221 0.484093 41.3402 -6.8435 -30.5788 -78.9736 -17.7986 26.1296 
386.014 85.9183 252.676 79.3252 -32.0474 92.9211 176.133 41.7084 100.054 -31.0537 45.5091 1.53581 56.859 3.58588 18.0724 141.809 -30.2533 -67.7436 171.004 9.5437 99.6134 -48.6082 -11.6689 2.56996 125.415 -33.1382 -0.618289 20.701 -10.6809 -114.536 -0.938588 6.77354 -90.2649 13.3265 -1.99053 -0.285938 1.65717 -2.0012 -0.198025 -20.8885 -1.8125 -0.871134 -0.875888 -1.8125 -0.871134 90.1335 -45.3326 -101.284 29.5418 -12.3223 -6.6564 -12.4625 -10.252 -49.8696 -9.96116 -0.795907 3.97774 -93.4691 -36.7502 69.7871 -33.3488 10.9429 6.79453 3.80406 8.91414 -34.1129 15.2661 1.13085 3.56332 24.4802 -3.03338 -26.0505 -45.0661 -5.82929 29.72 
383.336 87.1765 251.018 84.0228 -37.0462 92.3729 -179.434 32.6432 97.6669 -16.7137 20.9721 0.0316757 60.4818 3.43947 0.362855 96.0023 -52.9186 -122.729 171.416 -0.808844 96.0814 -44.4195 5.46891 0.490759 107.421 -23.7016 -4.25757 30.8607 -4.51481 -44.3555 -0.221741 7.06128 -90.2409 12.7523 -0.555618 -0.41593 1.08143 -0.573394 -0.391072 -21.4537 -0.404951 -0.563681 -1.44109 -0.404936 -0.563679 92.4934 -39.0953 -98.9421 30.2014 -13.4399 -11.2126 -15.1356 -12.2705 -51.9763 -12.2109 -0.935146 3.64993 -92.9937 -42.9461 72.7719 -31.7525 10.7454 10.4574 5.11977 10.8354 -36.7279 14.452 1.21785 4.47215 16.6474 -0.422911 -13.6849 -19.5402 0.265098 21.2748 
379.007 89.1436 248.643 90.8177 -42.9521 92.6674 -176.655 22.8458 95.2677 -7.73865 1.16668 -0.09457 54.7044 0.297866 -7.63481 0.795711 -3.20581 -142.207 171.367 2.35386 91.5887 -50.1444 8.65045 -2.47101 85.1099 -9.42656 -4.16098 72.7549 -5.49124 -8.45771 0.326466 7.26582 -90.0013 12.3427 0.648174 -0.0759714 0.67186 0.644216 -0.104429 -21.8646 0.641039 0.122361 -1.85192 0.641049 0.122361 90.9717 -38.0757 -101.888 27.6234 -12.9762 -12.5112 -15.7255 -12.1 -53.2293 -10.3333 -0.663671 1.69192 -94.4529 -46.3531 71.5293 -31.3785 7.01629 14.6897 5.50278 11.8244 -35.9339 12.312 1.03547 4.35203 3.47137 -1.30978 -2.65381 -1.25082 -0.793347 7.13931 
